<svg width="54" height="54" viewBox="0 0 54 54" fill="none" xmlns="http://www.w3.org/2000/svg">
<path d="M27.3335 5.80385C27.3335 5.80387 27.3329 5.80436 27.3316 5.80527C27.3329 5.80429 27.3335 5.80383 27.3335 5.80385ZM26.6685 5.80532C26.6672 5.80438 26.6665 5.80387 26.6665 5.80385C26.6665 5.80383 26.6671 5.8043 26.6685 5.80532ZM27 6.12136C27.0223 6.14359 27.0458 6.16709 27.0707 6.19203L47.808 26.9293C47.8329 26.9542 47.8564 26.9777 47.8786 27C47.8564 27.0223 47.8329 27.0458 47.808 27.0707L27.0707 47.808C27.0458 47.8329 27.0223 47.8564 27 47.8786C26.9777 47.8564 26.9542 47.8329 26.9293 47.808L6.19203 27.0707L5.14521 28.1175L6.19203 27.0707C6.16709 27.0458 6.14359 27.0223 6.12136 27C6.14359 26.9777 6.16709 26.9542 6.19203 26.9293L26.9293 6.19203L25.8812 5.14397L26.9293 6.19203C26.9542 6.16709 26.9777 6.14359 27 6.12136ZM5.80385 26.6665C5.80387 26.6665 5.80436 26.6671 5.80527 26.6684C5.80428 26.6671 5.80383 26.6665 5.80385 26.6665ZM5.80533 27.3315C5.80438 27.3328 5.80387 27.3335 5.80385 27.3335C5.80383 27.3335 5.8043 27.3329 5.80533 27.3315ZM48.1961 27.3335C48.1961 27.3334 48.1956 27.3328 48.1947 27.3315C48.1957 27.3329 48.1962 27.3336 48.1961 27.3335ZM48.1948 26.6683C48.1956 26.6671 48.1961 26.6665 48.1961 26.6665C48.1962 26.6664 48.1958 26.667 48.1948 26.6683Z" stroke="#A88C43" stroke-width="3" stroke-miterlimit="1.30541" stroke-linejoin="round"/>
<path d="M26.2929 14.7071C26.6834 14.3166 27.3166 14.3166 27.7071 14.7071L39.2929 26.2929C39.6834 26.6834 39.6834 27.3166 39.2929 27.7071L27.7071 39.2929C27.3166 39.6834 26.6834 39.6834 26.2929 39.2929L14.7071 27.7071C14.3166 27.3166 14.3166 26.6834 14.7071 26.2929L26.2929 14.7071Z" fill="#A88C43"/>
</svg>
